<?xml version="1.0" encoding="UTF-8" standalone="no"?>
<!-- Created with Inkscape (http://www.inkscape.org/) -->

<svg
   width="256"
   height="256"
   viewBox="0 0 48 48"
   version="1.1"
   id="svg1"
   inkscape:version="1.3 (0e150ed6c4, 2023-07-21)"
   sodipodi:docname="logo-bg.svg"
   inkscape:export-filename="logo.png"
   inkscape:export-xdpi="96"
   inkscape:export-ydpi="96"
   xmlns:inkscape="http://www.inkscape.org/namespaces/inkscape"
   xmlns:sodipodi="http://sodipodi.sourceforge.net/DTD/sodipodi-0.dtd"
   xmlns:xlink="http://www.w3.org/1999/xlink"
   xmlns="http://www.w3.org/2000/svg"
   xmlns:svg="http://www.w3.org/2000/svg">
  <sodipodi:namedview
     id="namedview1"
     pagecolor="#ffffff"
     bordercolor="#666666"
     borderopacity="1.0"
     inkscape:showpageshadow="2"
     inkscape:pageopacity="0.0"
     inkscape:pagecheckerboard="0"
     inkscape:deskcolor="#d1d1d1"
     inkscape:document-units="mm"
     inkscape:zoom="1.4878904"
     inkscape:cx="106.52667"
     inkscape:cy="61.496466"
     inkscape:window-width="2029"
     inkscape:window-height="1237"
     inkscape:window-x="454"
     inkscape:window-y="87"
     inkscape:window-maximized="0"
     inkscape:current-layer="layer1"
     showguides="false">
    <sodipodi:guide
       position="38.896708,10.194795"
       orientation="1,0"
       id="guide1"
       inkscape:locked="false" />
    <sodipodi:guide
       position="9.1032923,12.735303"
       orientation="1,0"
       id="guide2"
       inkscape:locked="false" />
    <sodipodi:guide
       position="9.1032923,44.135468"
       orientation="0,-1"
       id="guide3"
       inkscape:locked="false" />
    <sodipodi:guide
       position="9.1032923,14.479385"
       orientation="0,-1"
       id="guide4"
       inkscape:locked="false" />
    <sodipodi:guide
       position="9.1032923,22.376472"
       orientation="0,-1"
       id="guide5"
       inkscape:locked="false" />
    <sodipodi:guide
       position="9.1032923,35.902335"
       orientation="0,-1"
       id="guide6"
       inkscape:locked="false" />
    <sodipodi:guide
       position="17.054348,44.135468"
       orientation="1,0"
       id="guide7"
       inkscape:locked="false" />
    <sodipodi:guide
       position="30.58021,44.135468"
       orientation="1,0"
       id="guide8"
       inkscape:locked="false" />
  </sodipodi:namedview>
  <defs
     id="defs1">
    <linearGradient
       id="linearGradient20"
       inkscape:collect="always">
      <stop
         style="stop-color:#ffffff;stop-opacity:1;"
         offset="0"
         id="stop20" />
      <stop
         style="stop-color:#dedede;stop-opacity:1;"
         offset="1"
         id="stop21" />
    </linearGradient>
    <linearGradient
       id="linearGradient19"
       inkscape:collect="always">
      <stop
         style="stop-color:#2f2f2f;stop-opacity:1;"
         offset="0"
         id="stop18" />
      <stop
         style="stop-color:#616161;stop-opacity:1;"
         offset="1"
         id="stop19" />
    </linearGradient>
    <linearGradient
       id="linearGradient17"
       inkscape:collect="always">
      <stop
         style="stop-color:#2b2b2b;stop-opacity:1;"
         offset="0"
         id="stop16" />
      <stop
         style="stop-color:#939393;stop-opacity:1;"
         offset="1"
         id="stop17" />
    </linearGradient>
    <linearGradient
       id="linearGradient15"
       inkscape:collect="always">
      <stop
         style="stop-color:#606060;stop-opacity:1;"
         offset="0"
         id="stop14" />
      <stop
         style="stop-color:#545454;stop-opacity:1;"
         offset="1"
         id="stop15" />
    </linearGradient>
    <linearGradient
       inkscape:collect="always"
       xlink:href="#linearGradient17"
       id="linearGradient11"
       x1="10.48282"
       y1="13.477193"
       x2="29.324219"
       y2="24.367186"
       gradientUnits="userSpaceOnUse" />
    <linearGradient
       inkscape:collect="always"
       xlink:href="#linearGradient19"
       id="linearGradient12"
       x1="9.1032923"
       y1="38.590184"
       x2="38.896708"
       y2="38.590184"
       gradientUnits="userSpaceOnUse" />
    <linearGradient
       inkscape:collect="always"
       xlink:href="#linearGradient15"
       id="linearGradient14"
       x1="7.7237647"
       y1="18.692574"
       x2="42.926678"
       y2="29.152014"
       gradientUnits="userSpaceOnUse" />
    <radialGradient
       inkscape:collect="always"
       xlink:href="#linearGradient20"
       id="radialGradient21"
       cx="23.502236"
       cy="23.061172"
       fx="23.502236"
       fy="23.061172"
       r="28.920982"
       gradientTransform="matrix(1,0,0,1.0806099,0,-1.8589591)"
       gradientUnits="userSpaceOnUse" />
  </defs>
  <g
     inkscape:label="Ebene 1"
     inkscape:groupmode="layer"
     id="layer1">
    <rect
       style="fill:url(#radialGradient21);fill-opacity:1;stroke:none;stroke-width:0.258662;stroke-linecap:round;stroke-linejoin:round;stroke-opacity:1"
       id="rect19"
       width="57.841965"
       height="62.504601"
       x="-5.418746"
       y="-8.1911278" />
    <path
       style="font-size:27.5059px;line-height:1.25;font-family:'Yuji Mai';-inkscape-font-specification:'Yuji Mai';stroke-width:0.85956;fill:url(#linearGradient11);fill-opacity:1"
       d="m 35.553166,21.398736 q -0.05501,0.385083 -0.660142,0.495107 -0.60513,0.08252 -1.402801,0.02751 -0.770165,-0.05501 -1.402801,-0.13753 -0.192541,0 -0.357576,-0.02751 -0.165036,-0.02751 -0.275059,-0.02751 -1.347789,-0.110023 -2.805602,-0.05501 -1.430307,0.02751 -2.585555,0.13753 -0.02751,0.577624 -0.02751,1.21026 0.02751,0.632635 0.05501,1.292777 0.05501,1.375295 0,2.75059 -0.02751,1.347789 -0.495106,2.420519 -0.4676,1.100236 -1.67786,1.650354 -0.357577,-0.165036 -0.715153,-0.330071 -0.330071,-0.137529 -0.825177,-0.165035 -1.182754,-0.467601 -2.090449,-1.265272 -0.880188,-0.770165 -1.815389,-1.485318 0.08252,0.02751 0.165035,0.05501 0.110024,0 0.192542,0.02751 0.632635,0.13753 1.347789,0.275059 0.742659,0.110024 1.430307,0.05501 0.687647,-0.05501 1.237765,-0.412588 0.660142,-0.440095 0.880189,-1.237766 0.247553,-0.825177 0.247553,-1.760377 0.02751,-0.935201 -0.02751,-1.787884 0,-0.330071 -0.02751,-0.632635 0,-0.302565 0,-0.550118 -1.045224,0.08252 -2.338001,0.220047 -1.292778,0.137529 -2.503037,0.4676 -1.21026,0.302565 -2.035437,0.935201 -1.045224,0.110023 -1.842895,-0.247553 -0.770165,-0.385083 -1.265271,-0.990213 -0.495107,-0.60513 -0.715154,-1.182754 0.165036,-0.33007 0.467601,-0.302564 0.302564,0.0275 0.605129,0.110023 0.13753,0.02751 0.247553,0.08252 0.13753,0.02751 0.247554,0.02751 1.127741,0.05501 2.530542,-0.05501 1.402801,-0.13753 2.860614,-0.302565 0.852683,-0.110024 1.705366,-0.192541 0.880188,-0.08252 1.705365,-0.13753 -0.05501,-0.632635 -0.4676,-1.100236 -0.412588,-0.4676 -0.852683,-0.880188 -0.440094,-0.440095 -0.577624,-0.880189 0.357577,-0.165036 0.825177,0.05501 0.467601,0.192541 0.935201,0.440094 0.220047,0.110024 0.412588,0.220047 0.192542,0.110024 0.357577,0.165036 0.770165,-0.385083 1.265271,-0.962707 0.522613,-0.60513 0.962707,-1.292777 -0.660142,-0.08252 -1.595342,-0.08252 -0.935201,-0.02751 -1.925413,0.110024 -0.990213,0.137529 -1.787884,0.440094 -0.797671,0.302565 -1.210259,0.825177 -0.302565,-0.02751 -0.880189,-0.357577 -0.550118,-0.33007 -1.100236,-0.852683 -0.522612,-0.522612 -0.770165,-1.07273 0.192541,-0.05501 0.797671,-0.05501 0.60513,0 0.880189,-0.02751 0.577624,-0.02751 1.265271,-0.08252 0.715153,-0.08252 1.457813,-0.165035 1.210259,-0.13753 2.448025,-0.247553 1.237765,-0.110024 2.310495,-0.08252 0.357577,-0.412589 1.045225,-0.330071 0.715153,0.08252 1.430306,0.4676 0.715154,0.385083 1.155248,0.880189 0.440094,0.4676 0.275059,0.852683 -0.08252,0.192541 -0.357577,0.302565 -0.247553,0.110023 -0.632635,0.385082 -0.770166,0.522613 -1.732872,1.21026 -0.935201,0.660142 -1.952919,1.127742 0.02751,0.05501 0.08252,0.165035 0.08252,0.13753 0.165035,0.330071 0.08252,0.165036 0.05501,0.302565 0.330071,-0.05501 0.742659,-0.05501 0.440095,0 0.880189,0 0.577624,0 1.155248,0 0.577624,-0.02751 1.045224,-0.110023 0.302565,-0.05501 0.550118,-0.330071 0.247553,-0.302565 0.522612,-0.357577 0.357577,-0.08252 0.935201,0.08252 0.605129,0.137529 1.182753,0.330071 0.577624,0.192541 0.797671,0.302565 0.247554,0.08252 0.715154,0.33007 0.4676,0.220047 0.825177,0.522612 0.385082,0.275059 0.330071,0.522612 z m 0.605129,-5.473674 q -0.577623,0.13753 -1.017718,0.385083 -0.440094,0.247553 -0.880189,0.4676 -0.412588,0.192542 -1.017718,0.247553 -0.687647,-0.385082 -1.430307,-0.715153 -0.715153,-0.357577 -1.182753,-0.962706 0.275059,-0.495107 0.660141,-0.825177 0.412589,-0.357577 0.770165,-0.74266 0.357577,-0.412588 0.412589,-1.07273 -0.687648,-0.770165 -1.980425,-0.825177 -1.265271,-0.05501 -2.915625,0.05501 -0.302565,0.02751 -0.60513,0.05501 -0.302565,0 -0.632636,0.02751 -1.182753,0.05501 -2.530542,0.192541 -1.320284,0.110024 -2.640567,0.275059 -1.292777,0.165035 -2.393013,0.357577 -0.550118,0.110023 -1.457813,0.357576 -0.907694,0.247554 -1.457812,0.660142 0.08252,0.880189 -0.110024,1.67786 -0.165035,0.770165 -0.385083,1.567836 -0.110023,0.385083 -0.220047,0.770165 -0.08252,0.385083 -0.165035,0.797671 0.02751,0.110024 0.08252,0.220048 0.08252,0.08252 0.165035,0.192541 0.137529,0.165035 0.220047,0.357577 0.08252,0.192541 -0.08252,0.495106 -0.495106,0.02751 -1.182753,-0.220047 -0.660142,-0.275059 -1.265272,-0.74266 -0.605129,-0.4676 -0.907694,-1.07273 -0.302565,-0.632635 -0.05501,-1.375295 0.632636,0.02751 1.017718,-0.60513 0.412589,-0.632635 0.742659,-1.375294 0.110024,-0.192542 0.192542,-0.385083 0.110023,-0.220047 0.192541,-0.385083 -0.330071,-0.247553 -0.577624,-0.605129 -0.220047,-0.357577 -0.770165,-0.385083 0.08252,-0.220047 0.247553,-0.302565 0.192541,-0.110024 0.220047,-0.385083 3.245696,-0.522612 6.821463,-0.852682 3.603273,-0.357577 7.096522,-0.522613 Q 27.686478,9.9562823 28.264102,9.2411289 28.841726,8.4984696 29.364338,7.7007986 29.171797,7.315716 28.869232,7.0131511 28.594173,6.7105862 28.291608,6.4355272 q 0.165036,-0.1100236 0.165036,-0.1925413 0,-0.082518 -0.05501,-0.275059 0,-0.027506 0,-0.027506 0.385082,0.1100236 1.017718,0.2200472 0.632636,0.082518 1.292777,0.2475531 0.660142,0.1650354 1.100236,0.4676003 0.440095,0.3025649 0.467601,0.825177 0.0275,0.4951062 -0.440095,0.8526828 -0.4676,0.3575767 -0.907694,0.4125885 -0.220048,0.6601416 -0.852683,0.9352006 -0.60513,0.2475535 -1.375295,0.3850825 -0.74266,0.110024 -1.375295,0.357577 0.165035,-0.02751 0.440094,-0.02751 0.275059,-0.02751 0.60513,-0.02751 0.577624,-0.02751 1.210259,-0.05501 0.632636,-0.05501 1.127742,-0.165035 0.522612,-0.13753 0.687648,-0.4125887 1.182753,0.1375297 2.14546,0.5776237 0.962706,0.440095 1.567836,1.375295 -0.192541,0.192541 -0.687647,0.192541 0.880189,0.522613 1.292777,1.595343 0.440094,1.045224 0.440094,2.227977 z M 24.798359,10.148824 Q 24.110711,10.341365 23.588099,9.9562823 23.092993,9.5711997 22.625393,9.1035994 22.37784,8.8285404 22.102781,8.6084932 21.855228,8.3609401 21.580169,8.1959048 21.442639,7.7007986 21.415133,7.0681629 q -0.02751,-0.6326357 -0.02751,-0.9902124 0,-0.1100236 0,-0.1375295 0.907695,0.3575767 1.705366,0.825177 0.797671,0.4676003 1.265272,1.2652714 0.495106,0.7701651 0.440094,2.1179546 z m -5.446168,0.990212 Q 18.719555,11.24906 18.251955,10.974001 17.784355,10.698942 17.34426,10.368871 17.041695,10.148824 16.73913,9.9562823 16.464071,9.763741 16.134001,9.6537174 16.078989,9.4336702 16.023977,8.9660699 15.968965,8.4984696 15.886448,8.0033635 15.831436,7.5082573 15.6664,7.2056924 q 1.540331,0.4400944 2.585555,1.3202831 1.07273,0.8801888 1.100236,2.6130605 z"
       id="text2"
       inkscape:label="学"
       aria-label="学" />
    <path
       d="m 12.850132,38.62208 q 1.299307,0.997143 2.568398,2.29645 l -0.604329,0.513679 q -1.269091,-1.329523 -2.447533,-2.236017 -1.178441,1.269091 -2.6892632,2.266234 l -0.5741125,-0.51368 q 3.2029437,-2.084934 4.1094367,-4.169869 l -3.2935927,0.211515 -0.090649,-0.725195 3.505108,-0.151082 0.362597,-0.09065 0.483463,0.483463 q 0.211515,0.211515 -0.120866,0.271948 -0.574112,0.997142 -1.208657,1.843203 z m 10.666405,0.392814 -2.810129,0.302164 0.574112,2.447532 -0.664762,0.151083 -0.574112,-2.507965 -3.082078,0.362597 -0.09065,-0.634545 3.021645,-0.332381 -0.302165,-1.420173 -2.054718,0.241731 -0.120866,-0.634545 1.994285,-0.211515 -0.302164,-1.389957 0.634545,-0.120866 q 0.271948,-0.03022 0.09065,0.211516 l 0.241731,1.208657 2.205801,-0.302164 0.120866,0.634545 -2.145368,0.271948 0.302164,1.420173 2.840346,-0.332381 z m 3.928138,-0.906494 2.477749,-0.604329 0.151082,-0.09065 0.483463,0.483463 q 0.120866,0.120866 -0.09065,0.181299 -0.543896,0.876277 -1.148225,1.692121 l -0.51368,-0.332381 q 0.483463,-0.634545 0.906494,-1.329524 l -2.084935,0.51368 1.027359,3.051861 -0.604329,0.211515 -0.997143,-3.14251 -1.752554,0.483463 -0.211515,-0.604329 1.752554,-0.392814 -0.483463,-1.450389 0.634545,-0.120866 q 0.271948,0 0.09065,0.211515 z m 11.452033,-0.241731 q -1.601472,3.323809 -5.378528,3.505108 -0.151082,0.392813 -0.302164,0.06043 l -0.241732,-0.785627 q 3.928138,-0.09065 5.287878,-3.23316 z m -4.260519,0 Q 33.820345,37.111258 33.09515,36.627795 l 0.51368,-0.634546 q 0.634545,0.392814 1.601471,1.299307 z"
       id="text1"
       style="font-size:7.73541px;line-height:1.25;font-family:Echotopia;-inkscape-font-specification:Echotopia;stroke-width:0.725193;fill:url(#linearGradient12);fill-opacity:1"
       aria-label="スキャン" />
    <g
       id="g12"
       inkscape:label="dots"
       style="fill:none;fill-opacity:1;stroke:#393939;stroke-opacity:1">
      <path
         id="path1"
         style="fill:none;stroke:#393939;stroke-width:0.510236;stroke-linecap:round;stroke-linejoin:round;fill-opacity:1;stroke-opacity:1"
         d="m 10.548658,44.359306 a 0.78308827,0.71409833 0 0 1 1.090333,0.06931 0.78308827,0.71409833 0 0 1 -0.04767,0.995739 0.78308827,0.71409833 0 0 1 -1.092809,-0.01759 0.78308827,0.71409833 0 0 1 -0.0091,-0.996653" />
      <path
         id="path1-2"
         style="fill:none;stroke:#393939;stroke-width:0.510236;stroke-linecap:round;stroke-linejoin:round;fill-opacity:1;stroke-opacity:1"
         d="m 17.015419,44.359306 a 0.78308827,0.71409833 0 0 1 1.090333,0.06931 0.78308827,0.71409833 0 0 1 -0.04767,0.995739 0.78308827,0.71409833 0 0 1 -1.092809,-0.01759 0.78308827,0.71409833 0 0 1 -0.0091,-0.996653" />
      <path
         id="path1-2-0"
         style="fill:none;stroke:#393939;stroke-width:0.510236;stroke-linecap:round;stroke-linejoin:round;fill-opacity:1;stroke-opacity:1"
         d="m 23.482182,44.359306 a 0.78308827,0.71409833 0 0 1 1.090333,0.06931 0.78308827,0.71409833 0 0 1 -0.04767,0.995739 0.78308827,0.71409833 0 0 1 -1.092809,-0.01759 0.78308827,0.71409833 0 0 1 -0.0091,-0.996653" />
      <path
         id="path1-2-1"
         style="fill:none;stroke:#393939;stroke-width:0.510236;stroke-linecap:round;stroke-linejoin:round;fill-opacity:1;stroke-opacity:1"
         d="m 29.948942,44.359306 a 0.78308827,0.71409833 0 0 1 1.090333,0.06931 0.78308827,0.71409833 0 0 1 -0.04767,0.995739 0.78308827,0.71409833 0 0 1 -1.092808,-0.01759 0.78308827,0.71409833 0 0 1 -0.0091,-0.996653" />
      <path
         id="path1-1"
         style="fill:none;stroke:#393939;stroke-width:0.510236;stroke-linecap:round;stroke-linejoin:round;fill-opacity:1;stroke-opacity:1"
         d="m 36.415705,44.359306 a 0.78308827,0.71409833 0 0 1 1.090333,0.06931 0.78308827,0.71409833 0 0 1 -0.04767,0.995739 0.78308827,0.71409833 0 0 1 -1.092809,-0.01759 0.78308827,0.71409833 0 0 1 -0.0091,-0.996653" />
    </g>
    <g
       id="g11"
       inkscape:label="lens"
       style="stroke-width:2.51338583;stroke-dasharray:none;fill:url(#linearGradient14);fill-opacity:1">
      <g
         id="path8"
         style="fill:url(#linearGradient14);fill-opacity:1">
        <path
           style="color:#000000;fill:url(#linearGradient14);stroke-linejoin:bevel;-inkscape-stroke:none;fill-opacity:1"
           d="M 9.1035156,3.1738281 8.4140625,3.8652344 V 12.097656 H 9.7929688 V 4.5546875 H 17.054687 V 3.1738281 Z"
           id="path22" />
        <g
           id="g20"
           style="fill:url(#linearGradient14);fill-opacity:1">
          <path
             id="path21"
             style="color:#000000;fill:url(#linearGradient14);-inkscape-stroke:none;fill-opacity:1"
             d="m 9.7930561,12.097665 v 0.403512 c 0,0.513874 0.4138579,0.769086 0.6897639,0.976016 H 7.7237647 c 0.2759055,-0.20693 0.6897638,-0.462142 0.6897638,-0.976016 v -0.403512 l 0.6897638,-0.06898 z"
             sodipodi:nodetypes="sssssscsss" />
          <path
             id="path20"
             style="color:#000000;fill:url(#linearGradient14);-inkscape-stroke:none;fill-opacity:1"
             d="m 17.054348,3.1747682 h 0.403512 c 0.513874,0 0.769086,-0.4138583 0.976016,-0.6897638 V 5.2440596 C 18.226946,4.9681541 17.971734,4.5542958 17.45786,4.5542958 H 17.054348 L 16.985372,3.864532 Z"
             sodipodi:nodetypes="sssssscsss" />
        </g>
      </g>
      <path
         style="color:#000000;fill:url(#linearGradient14);stroke-linecap:round;stroke-linejoin:round;-inkscape-stroke:none;fill-opacity:1"
         d="m 30.580078,2.6074219 a 1.2566929,1.2566929 0 0 0 -1.255859,1.2578125 1.2566929,1.2566929 0 0 0 1.255859,1.2558593 h 7.060547 v 6.9765623 a 1.2566929,1.2566929 0 0 0 1.255859,1.25586 1.2566929,1.2566929 0 0 0 1.257813,-1.25586 V 3.8652344 A 1.2568186,1.2568186 0 0 0 38.896484,2.6074219 Z"
         id="path9" />
      <g
         id="path10"
         style="fill:url(#linearGradient14);fill-opacity:1">
        <path
           style="color:#000000;fill:url(#linearGradient14);stroke-linejoin:bevel;-inkscape-stroke:none;fill-opacity:1"
           d="m 8.4140625,25.623047 v 7.898437 l 0.6894531,0.689453 H 17.054687 V 32.830078 H 9.7929688 v -7.207031 z"
           id="path18" />
        <g
           id="g16"
           style="fill:url(#linearGradient14);fill-opacity:1">
          <path
             id="path17"
             style="color:#000000;fill:url(#linearGradient14);-inkscape-stroke:none;fill-opacity:1"
             d="m 17.054348,32.830851 h 0.403512 c 0.513874,0 0.769086,-0.413858 0.976016,-0.689764 v 2.759056 c -0.20693,-0.275906 -0.462142,-0.689764 -0.976016,-0.689764 h -0.403512 l -0.06898,-0.689764 z"
             sodipodi:nodetypes="sssssscsss" />
          <path
             id="path16"
             style="color:#000000;fill:url(#linearGradient14);-inkscape-stroke:none;fill-opacity:1"
             d="m 8.4135285,25.623528 v -0.403512 c 0,-0.513874 -0.4138583,-0.769086 -0.6897638,-0.976016 H 10.48282 c -0.275906,0.20693 -0.6897639,0.462142 -0.6897639,0.976016 v 0.403512 l -0.6897638,0.06898 z"
             sodipodi:nodetypes="sssssscsss" />
        </g>
      </g>
      <path
         style="color:#000000;fill:url(#linearGradient14);stroke-linecap:round;stroke-linejoin:round;-inkscape-stroke:none;fill-opacity:1"
         d="m 38.896484,24.367187 a 1.2566929,1.2566929 0 0 0 -1.255859,1.25586 v 6.640625 h -7.060547 a 1.2566929,1.2566929 0 0 0 -1.255859,1.257812 1.2566929,1.2566929 0 0 0 1.255859,1.25586 h 8.316406 a 1.2568186,1.2568186 0 0 0 1.257813,-1.25586 v -7.898437 a 1.2566929,1.2566929 0 0 0 -1.257813,-1.25586 z"
         id="path11" />
    </g>
  </g>
</svg>
